<mxfile host="app.diagrams.net" modified="2023-01-19T09:00:18.547Z" agent="5.0 (Windows NT 10.0; Win64; x64) AppleWebKit/537.36 (KHTML, like Gecko) Chrome/108.0.0.0 Safari/537.36" etag="XXBKnuH_0n4p4uT8Bq4f" version="20.8.5" type="github">
  <diagram id="Rsa0r8eUDrY4AEIwcedU" name="Page-1">
    <mxGraphModel dx="1106" dy="653" grid="1" gridSize="10" guides="1" tooltips="1" connect="1" arrows="1" fold="1" page="1" pageScale="1" pageWidth="850" pageHeight="1100" math="0" shadow="0">
      <root>
        <mxCell id="0" />
        <mxCell id="1" parent="0" />
        <mxCell id="DYYCOIdVNQvpekObKvZJ-1" value="End" style="rounded=1;whiteSpace=wrap;html=1;" vertex="1" parent="1">
          <mxGeometry x="100" y="100" width="120" height="60" as="geometry" />
        </mxCell>
        <mxCell id="DYYCOIdVNQvpekObKvZJ-2" value="Begin Again" style="rounded=1;whiteSpace=wrap;html=1;" vertex="1" parent="1">
          <mxGeometry x="360" y="310" width="120" height="60" as="geometry" />
        </mxCell>
        <mxCell id="DYYCOIdVNQvpekObKvZJ-9" value="" style="endArrow=classic;html=1;rounded=0;exitX=0.5;exitY=1;exitDx=0;exitDy=0;entryX=0.5;entryY=0;entryDx=0;entryDy=0;edgeStyle=orthogonalEdgeStyle;" edge="1" parent="1" source="DYYCOIdVNQvpekObKvZJ-1" target="DYYCOIdVNQvpekObKvZJ-2">
          <mxGeometry relative="1" as="geometry">
            <mxPoint x="340" y="340" as="sourcePoint" />
            <mxPoint x="500" y="340" as="targetPoint" />
          </mxGeometry>
        </mxCell>
        <mxCell id="DYYCOIdVNQvpekObKvZJ-10" value="go go go" style="edgeLabel;resizable=0;html=1;align=center;verticalAlign=middle;fontSize=31;" connectable="0" vertex="1" parent="DYYCOIdVNQvpekObKvZJ-9">
          <mxGeometry relative="1" as="geometry" />
        </mxCell>
        <mxCell id="DYYCOIdVNQvpekObKvZJ-11" value="from" style="edgeLabel;resizable=0;html=1;align=left;verticalAlign=bottom;" connectable="0" vertex="1" parent="DYYCOIdVNQvpekObKvZJ-9">
          <mxGeometry x="-1" relative="1" as="geometry" />
        </mxCell>
        <mxCell id="DYYCOIdVNQvpekObKvZJ-12" value="to" style="edgeLabel;resizable=0;html=1;align=right;verticalAlign=bottom;" connectable="0" vertex="1" parent="DYYCOIdVNQvpekObKvZJ-9">
          <mxGeometry x="1" relative="1" as="geometry" />
        </mxCell>
      </root>
    </mxGraphModel>
  </diagram>
</mxfile>
